<svg xmlns="http://www.w3.org/2000/svg" xmlns:xlink="http://www.w3.org/1999/xlink" width="500" zoomAndPan="magnify" viewBox="0 0 375 374.999991" height="500" preserveAspectRatio="xMidYMid meet" version="1.0"><defs><g/><clipPath id="0c5ec9a18c"><path d="M 58.355469 43.527344 L 316.355469 43.527344 L 316.355469 200.277344 L 58.355469 200.277344 Z M 58.355469 43.527344 " clip-rule="nonzero"/></clipPath></defs><g clip-path="url(#0c5ec9a18c)"><path fill="#c78c34" d="M 316.671875 254.175781 L 48.429688 254.175781 C 46.699219 254.175781 45.300781 252.777344 45.300781 251.050781 L 45.300781 -17.191406 C 45.300781 -18.917969 46.699219 -20.324219 48.429688 -20.324219 C 50.15625 -20.324219 51.554688 -18.917969 51.554688 -17.191406 L 51.554688 247.921875 L 316.671875 247.921875 C 318.402344 247.921875 319.800781 249.320312 319.800781 251.050781 C 319.800781 252.777344 318.402344 254.175781 316.671875 254.175781 " fill-opacity="1" fill-rule="nonzero"/></g><path fill="#c78c34" d="M 297.058594 86.261719 C 295.328125 86.261719 293.929688 84.859375 293.929688 83.132812 L 293.929688 66.242188 L 277.039062 66.242188 C 275.308594 66.242188 273.910156 64.839844 273.910156 63.117188 C 273.910156 61.386719 275.308594 59.984375 277.039062 59.984375 L 297.058594 59.984375 C 298.785156 59.984375 300.183594 61.386719 300.183594 63.117188 L 300.183594 83.132812 C 300.183594 84.859375 298.785156 86.261719 297.058594 86.261719 " fill-opacity="1" fill-rule="nonzero"/><path fill="#c78c34" d="M 65.195312 183.429688 C 64.394531 183.429688 63.597656 183.125 62.984375 182.511719 C 61.757812 181.292969 61.757812 179.3125 62.984375 178.089844 L 118.476562 122.597656 C 119.695312 121.375 121.675781 121.375 122.902344 122.597656 L 153.210938 152.90625 L 222.421875 83.699219 C 223.640625 82.476562 225.621094 82.476562 226.84375 83.699219 L 249.445312 106.296875 L 294.84375 60.898438 C 296.066406 59.675781 298.046875 59.675781 299.269531 60.898438 C 300.488281 62.121094 300.488281 64.105469 299.269531 65.328125 L 251.660156 112.9375 C 250.433594 114.160156 248.453125 114.160156 247.230469 112.9375 L 224.628906 90.339844 L 155.425781 159.542969 C 154.203125 160.765625 152.222656 160.765625 151 159.542969 L 120.683594 129.234375 L 67.40625 182.511719 C 66.796875 183.125 65.996094 183.429688 65.195312 183.429688 " fill-opacity="1" fill-rule="nonzero"/><path fill="#c78c34" d="M 297.058594 152.917969 C 295.328125 152.917969 293.929688 151.515625 293.929688 149.792969 L 293.929688 132.902344 L 277.039062 132.902344 C 275.308594 132.902344 273.910156 131.496094 273.910156 129.769531 C 273.910156 128.039062 275.308594 126.640625 277.039062 126.640625 L 297.058594 126.640625 C 298.785156 126.640625 300.183594 128.039062 300.183594 129.769531 L 300.183594 149.792969 C 300.183594 151.515625 298.785156 152.917969 297.058594 152.917969 " fill-opacity="1" fill-rule="nonzero"/><path fill="#c78c34" d="M 216.710938 177.996094 C 215.90625 177.996094 215.109375 177.6875 214.496094 177.078125 L 182.871094 145.453125 C 181.648438 144.234375 181.648438 142.25 182.871094 141.027344 C 184.097656 139.804688 186.074219 139.804688 187.296875 141.027344 L 216.710938 170.4375 L 245.570312 141.585938 C 246.792969 140.363281 248.769531 140.363281 249.992188 141.585938 L 265.40625 156.996094 L 294.84375 127.558594 C 296.066406 126.335938 298.046875 126.335938 299.269531 127.558594 C 300.488281 128.78125 300.488281 130.761719 299.269531 131.984375 L 267.617188 163.636719 C 266.394531 164.859375 264.414062 164.859375 263.195312 163.636719 L 247.78125 148.222656 L 218.921875 177.078125 C 218.308594 177.6875 217.511719 177.996094 216.710938 177.996094 " fill-opacity="1" fill-rule="nonzero"/><path fill="#c78c34" d="M 167.300781 128.589844 C 166.503906 128.589844 165.703125 128.285156 165.089844 127.675781 L 110.308594 72.890625 L 67.40625 115.789062 C 66.1875 117.007812 64.207031 117.007812 62.984375 115.789062 C 61.757812 114.566406 61.757812 112.585938 62.984375 111.363281 L 108.097656 66.253906 C 109.320312 65.03125 111.296875 65.03125 112.519531 66.253906 L 169.515625 123.246094 C 170.738281 124.46875 170.738281 126.453125 169.515625 127.675781 C 168.902344 128.285156 168.105469 128.589844 167.300781 128.589844 " fill-opacity="1" fill-rule="nonzero"/><path stroke-linecap="round" transform="matrix(0.749183, 0, 0, 0.75, 58.356296, 281.190332)" fill="none" stroke-linejoin="miter" d="M 2.001076 2.001433 L 342.382166 2.001433 " stroke="#c78c34" stroke-width="4" stroke-opacity="1" stroke-miterlimit="4"/><g fill="#ffffff" fill-opacity="1"><g transform="translate(66.293429, 250.48988)"><g><path d="M 23.296875 -31.21875 L 23.296875 -25.296875 L 9.84375 -25.296875 L 9.84375 0 L 3.34375 0 L 3.34375 -58.4375 L 26.546875 -58.4375 L 26.546875 -52.515625 L 9.84375 -52.515625 L 9.84375 -31.21875 Z M 23.296875 -31.21875 "/></g></g></g><g fill="#ffffff" fill-opacity="1"><g transform="translate(101.437833, 250.48988)"><g><path d="M 9.84375 -58.4375 L 9.84375 0 L 3.34375 0 L 3.34375 -58.4375 Z M 9.84375 -58.4375 "/></g></g></g><g fill="#ffffff" fill-opacity="1"><g transform="translate(121.389331, 250.48988)"><g><path d="M 9.09375 0 L 3.25 0 L 3.25 -58.4375 L 11.515625 -58.4375 L 25.046875 -16.203125 L 25.046875 -58.4375 L 30.8125 -58.4375 L 30.8125 0 L 24.046875 0 L 9.09375 -47.25 Z M 9.09375 0 "/></g></g></g><g fill="#ffffff" fill-opacity="1"><g transform="translate(162.293688, 250.48988)"><g><path d="M 11.859375 0 L 11.859375 -52.515625 L 1.078125 -52.515625 L 1.078125 -58.4375 L 29.140625 -58.4375 L 29.140625 -52.515625 L 18.359375 -52.515625 L 18.359375 0 Z M 11.859375 0 "/></g></g></g><g fill="#ffffff" fill-opacity="1"><g transform="translate(199.358071, 250.48988)"><g><path d="M 24.125 -32.5625 L 24.125 -26.71875 L 9.84375 -26.71875 L 9.84375 -5.921875 L 27.390625 -5.921875 L 27.390625 0 L 3.34375 0 L 3.34375 -58.4375 L 27.390625 -58.4375 L 27.390625 -52.515625 L 9.84375 -52.515625 L 9.84375 -32.5625 Z M 24.125 -32.5625 "/></g></g></g><g fill="#ffffff" fill-opacity="1"><g transform="translate(236.172023, 250.48988)"><g><path d="M 15.953125 -59.03125 C 20.453125 -59.03125 23.773438 -57.691406 25.921875 -55.015625 C 28.066406 -52.347656 29.140625 -48.785156 29.140625 -44.328125 L 29.140625 -39.078125 L 22.953125 -39.078125 L 22.953125 -44.671875 C 22.953125 -47.335938 22.410156 -49.40625 21.328125 -50.875 C 20.242188 -52.351562 18.503906 -53.09375 16.109375 -53.09375 C 13.773438 -53.09375 12.050781 -52.351562 10.9375 -50.875 C 9.820312 -49.40625 9.265625 -47.335938 9.265625 -44.671875 L 9.265625 -13.78125 C 9.265625 -11.101562 9.820312 -9.023438 10.9375 -7.546875 C 12.050781 -6.078125 13.773438 -5.34375 16.109375 -5.34375 C 18.503906 -5.34375 20.242188 -6.078125 21.328125 -7.546875 C 22.410156 -9.023438 22.953125 -11.101562 22.953125 -13.78125 L 22.953125 -21.375 L 29.140625 -21.375 L 29.140625 -14.109375 C 29.140625 -9.660156 28.066406 -6.097656 25.921875 -3.421875 C 23.773438 -0.753906 20.453125 0.578125 15.953125 0.578125 C 11.492188 0.578125 8.191406 -0.753906 6.046875 -3.421875 C 3.910156 -6.097656 2.84375 -9.660156 2.84375 -14.109375 L 2.84375 -44.328125 C 2.84375 -46.554688 3.101562 -48.570312 3.625 -50.375 C 4.15625 -52.1875 4.960938 -53.734375 6.046875 -55.015625 C 7.140625 -56.296875 8.503906 -57.285156 10.140625 -57.984375 C 11.785156 -58.679688 13.722656 -59.03125 15.953125 -59.03125 Z M 15.953125 -59.03125 "/></g></g></g><g fill="#ffffff" fill-opacity="1"><g transform="translate(274.655536, 250.48988)"><g><path d="M 9.84375 -26.296875 L 9.84375 0 L 3.34375 0 L 3.34375 -58.4375 L 9.84375 -58.4375 L 9.84375 -32.140625 L 24.203125 -32.140625 L 24.203125 -58.4375 L 30.71875 -58.4375 L 30.71875 0 L 24.203125 0 L 24.203125 -26.296875 Z M 9.84375 -26.296875 "/></g></g></g><g fill="#ffffff" fill-opacity="1"><g transform="translate(102.710663, 305.90263)"><g><path d="M 4.171875 -4.53125 C 3.023438 -4.863281 2.1875 -5.269531 1.65625 -5.75 C 1.132812 -6.238281 0.875 -6.835938 0.875 -7.546875 C 0.875 -8.347656 1.191406 -9.007812 1.828125 -9.53125 C 2.472656 -10.050781 3.3125 -10.3125 4.34375 -10.3125 C 5.039062 -10.3125 5.660156 -10.175781 6.203125 -9.90625 C 6.753906 -9.632812 7.179688 -9.257812 7.484375 -8.78125 C 7.785156 -8.3125 7.9375 -7.796875 7.9375 -7.234375 L 6.578125 -7.234375 C 6.578125 -7.847656 6.378906 -8.328125 5.984375 -8.671875 C 5.597656 -9.023438 5.050781 -9.203125 4.34375 -9.203125 C 3.675781 -9.203125 3.15625 -9.054688 2.78125 -8.765625 C 2.414062 -8.484375 2.234375 -8.082031 2.234375 -7.5625 C 2.234375 -7.144531 2.410156 -6.789062 2.765625 -6.5 C 3.117188 -6.21875 3.71875 -5.957031 4.5625 -5.71875 C 5.40625 -5.488281 6.066406 -5.226562 6.546875 -4.9375 C 7.023438 -4.644531 7.378906 -4.304688 7.609375 -3.921875 C 7.835938 -3.546875 7.953125 -3.097656 7.953125 -2.578125 C 7.953125 -1.753906 7.628906 -1.09375 6.984375 -0.59375 C 6.347656 -0.101562 5.488281 0.140625 4.40625 0.140625 C 3.707031 0.140625 3.054688 0.0078125 2.453125 -0.25 C 1.847656 -0.519531 1.378906 -0.890625 1.046875 -1.359375 C 0.722656 -1.828125 0.5625 -2.359375 0.5625 -2.953125 L 1.90625 -2.953125 C 1.90625 -2.335938 2.128906 -1.847656 2.578125 -1.484375 C 3.035156 -1.128906 3.644531 -0.953125 4.40625 -0.953125 C 5.113281 -0.953125 5.65625 -1.097656 6.03125 -1.390625 C 6.414062 -1.679688 6.609375 -2.070312 6.609375 -2.5625 C 6.609375 -3.0625 6.429688 -3.445312 6.078125 -3.71875 C 5.734375 -4 5.097656 -4.269531 4.171875 -4.53125 Z M 4.171875 -4.53125 "/></g></g></g><g fill="#ffffff" fill-opacity="1"><g transform="translate(114.964808, 305.90263)"><g><path d="M 6.9375 -4.703125 L 2.515625 -4.703125 L 2.515625 -1.09375 L 7.640625 -1.09375 L 7.640625 0 L 1.1875 0 L 1.1875 -10.171875 L 7.578125 -10.171875 L 7.578125 -9.078125 L 2.515625 -9.078125 L 2.515625 -5.796875 L 6.9375 -5.796875 Z M 6.9375 -4.703125 "/></g></g></g><g fill="#ffffff" fill-opacity="1"><g transform="translate(126.862571, 305.90263)"><g><path d="M 8.34375 -10.171875 L 8.34375 -3.25 C 8.34375 -2.289062 8.039062 -1.503906 7.4375 -0.890625 C 6.84375 -0.285156 6.03125 0.0507812 5 0.125 L 4.640625 0.140625 C 3.535156 0.140625 2.648438 -0.15625 1.984375 -0.75 C 1.328125 -1.351562 0.992188 -2.1875 0.984375 -3.25 L 0.984375 -10.171875 L 2.3125 -10.171875 L 2.3125 -3.28125 C 2.3125 -2.550781 2.507812 -1.976562 2.90625 -1.5625 C 3.3125 -1.15625 3.890625 -0.953125 4.640625 -0.953125 C 5.398438 -0.953125 5.984375 -1.15625 6.390625 -1.5625 C 6.796875 -1.96875 7 -2.539062 7 -3.28125 L 7 -10.171875 Z M 8.34375 -10.171875 "/></g></g></g><g fill="#ffffff" fill-opacity="1"><g transform="translate(139.906349, 305.90263)"><g/></g></g><g fill="#ffffff" fill-opacity="1"><g transform="translate(147.213063, 305.90263)"><g><path d="M 1.1875 0 L 1.1875 -10.171875 L 4.046875 -10.171875 C 4.929688 -10.171875 5.710938 -9.972656 6.390625 -9.578125 C 7.078125 -9.191406 7.601562 -8.632812 7.96875 -7.90625 C 8.34375 -7.1875 8.535156 -6.363281 8.546875 -5.4375 L 8.546875 -4.78125 C 8.546875 -3.820312 8.359375 -2.976562 7.984375 -2.25 C 7.609375 -1.53125 7.078125 -0.976562 6.390625 -0.59375 C 5.710938 -0.207031 4.914062 -0.0078125 4 0 Z M 2.515625 -9.078125 L 2.515625 -1.09375 L 3.9375 -1.09375 C 4.96875 -1.09375 5.769531 -1.414062 6.34375 -2.0625 C 6.925781 -2.707031 7.21875 -3.625 7.21875 -4.8125 L 7.21875 -5.40625 C 7.21875 -6.5625 6.941406 -7.457031 6.390625 -8.09375 C 5.847656 -8.738281 5.082031 -9.066406 4.09375 -9.078125 Z M 2.515625 -9.078125 "/></g></g></g><g fill="#ffffff" fill-opacity="1"><g transform="translate(160.36166, 305.90263)"><g><path d="M 2.625 0 L 1.28125 0 L 1.28125 -10.171875 L 2.625 -10.171875 Z M 2.625 0 "/></g></g></g><g fill="#ffffff" fill-opacity="1"><g transform="translate(168.017768, 305.90263)"><g><path d="M 9 0 L 7.65625 0 L 2.53125 -7.84375 L 2.53125 0 L 1.1875 0 L 1.1875 -10.171875 L 2.53125 -10.171875 L 7.671875 -2.296875 L 7.671875 -10.171875 L 9 -10.171875 Z M 9 0 "/></g></g></g><g fill="#ffffff" fill-opacity="1"><g transform="translate(181.983949, 305.90263)"><g><path d="M 9 0 L 7.65625 0 L 7.65625 -4.703125 L 2.515625 -4.703125 L 2.515625 0 L 1.1875 0 L 1.1875 -10.171875 L 2.515625 -10.171875 L 2.515625 -5.796875 L 7.65625 -5.796875 L 7.65625 -10.171875 L 9 -10.171875 Z M 9 0 "/></g></g></g><g fill="#ffffff" fill-opacity="1"><g transform="translate(195.950129, 305.90263)"><g><path d="M 6.9375 -4.703125 L 2.515625 -4.703125 L 2.515625 -1.09375 L 7.640625 -1.09375 L 7.640625 0 L 1.1875 0 L 1.1875 -10.171875 L 7.578125 -10.171875 L 7.578125 -9.078125 L 2.515625 -9.078125 L 2.515625 -5.796875 L 6.9375 -5.796875 Z M 6.9375 -4.703125 "/></g></g></g><g fill="#ffffff" fill-opacity="1"><g transform="translate(207.847892, 305.90263)"><g><path d="M 2.625 0 L 1.28125 0 L 1.28125 -10.171875 L 2.625 -10.171875 Z M 2.625 0 "/></g></g></g><g fill="#ffffff" fill-opacity="1"><g transform="translate(215.504001, 305.90263)"><g><path d="M 4.90625 -4.109375 L 2.515625 -4.109375 L 2.515625 0 L 1.171875 0 L 1.171875 -10.171875 L 4.546875 -10.171875 C 5.691406 -10.171875 6.570312 -9.910156 7.1875 -9.390625 C 7.800781 -8.867188 8.109375 -8.109375 8.109375 -7.109375 C 8.109375 -6.472656 7.9375 -5.921875 7.59375 -5.453125 C 7.257812 -4.984375 6.785156 -4.632812 6.171875 -4.40625 L 8.5625 -0.078125 L 8.5625 0 L 7.125 0 Z M 2.515625 -5.21875 L 4.578125 -5.21875 C 5.242188 -5.21875 5.773438 -5.390625 6.171875 -5.734375 C 6.566406 -6.078125 6.765625 -6.535156 6.765625 -7.109375 C 6.765625 -7.742188 6.578125 -8.226562 6.203125 -8.5625 C 5.828125 -8.894531 5.285156 -9.066406 4.578125 -9.078125 L 2.515625 -9.078125 Z M 2.515625 -5.21875 "/></g></g></g><g fill="#ffffff" fill-opacity="1"><g transform="translate(228.079583, 305.90263)"><g><path d="M 9.015625 -4.765625 C 9.015625 -3.765625 8.84375 -2.890625 8.5 -2.140625 C 8.164062 -1.398438 7.691406 -0.832031 7.078125 -0.4375 C 6.460938 -0.0507812 5.742188 0.140625 4.921875 0.140625 C 4.117188 0.140625 3.40625 -0.0546875 2.78125 -0.453125 C 2.164062 -0.847656 1.6875 -1.410156 1.34375 -2.140625 C 1.007812 -2.867188 0.835938 -3.710938 0.828125 -4.671875 L 0.828125 -5.40625 C 0.828125 -6.382812 0.992188 -7.25 1.328125 -8 C 1.671875 -8.75 2.148438 -9.320312 2.765625 -9.71875 C 3.390625 -10.113281 4.101562 -10.3125 4.90625 -10.3125 C 5.726562 -10.3125 6.445312 -10.113281 7.0625 -9.71875 C 7.6875 -9.332031 8.164062 -8.765625 8.5 -8.015625 C 8.84375 -7.265625 9.015625 -6.394531 9.015625 -5.40625 Z M 7.671875 -5.421875 C 7.671875 -6.617188 7.425781 -7.539062 6.9375 -8.1875 C 6.457031 -8.832031 5.78125 -9.15625 4.90625 -9.15625 C 4.0625 -9.15625 3.394531 -8.832031 2.90625 -8.1875 C 2.425781 -7.539062 2.175781 -6.644531 2.15625 -5.5 L 2.15625 -4.765625 C 2.15625 -3.585938 2.398438 -2.664062 2.890625 -2 C 3.390625 -1.332031 4.066406 -1 4.921875 -1 C 5.796875 -1 6.46875 -1.3125 6.9375 -1.9375 C 7.414062 -2.570312 7.660156 -3.476562 7.671875 -4.65625 Z M 7.671875 -5.421875 "/></g></g></g><g fill="#ffffff" fill-opacity="1"><g transform="translate(241.6824, 305.90263)"><g/></g></g><g fill="#ffffff" fill-opacity="1"><g transform="translate(248.98912, 305.90263)"><g><path d="M 9 0 L 7.65625 0 L 2.53125 -7.84375 L 2.53125 0 L 1.1875 0 L 1.1875 -10.171875 L 2.53125 -10.171875 L 7.671875 -2.296875 L 7.671875 -10.171875 L 9 -10.171875 Z M 9 0 "/></g></g></g><g fill="#ffffff" fill-opacity="1"><g transform="translate(262.955308, 305.90263)"><g><path d="M 6.796875 -2.65625 L 2.53125 -2.65625 L 1.578125 0 L 0.203125 0 L 4.078125 -10.171875 L 5.25 -10.171875 L 9.140625 0 L 7.765625 0 Z M 2.9375 -3.765625 L 6.40625 -3.765625 L 4.671875 -8.515625 Z M 2.9375 -3.765625 "/></g></g></g><g fill="#ffffff" fill-opacity="1"><g transform="translate(91.264486, 327.369452)"><g><path d="M 2.515625 -3.984375 L 2.515625 0 L 1.1875 0 L 1.1875 -10.171875 L 4.9375 -10.171875 C 6.050781 -10.171875 6.921875 -9.882812 7.546875 -9.3125 C 8.179688 -8.75 8.5 -8 8.5 -7.0625 C 8.5 -6.070312 8.1875 -5.3125 7.5625 -4.78125 C 6.945312 -4.25 6.066406 -3.984375 4.921875 -3.984375 Z M 2.515625 -5.078125 L 4.9375 -5.078125 C 5.65625 -5.078125 6.203125 -5.242188 6.578125 -5.578125 C 6.960938 -5.921875 7.15625 -6.410156 7.15625 -7.046875 C 7.15625 -7.648438 6.960938 -8.132812 6.578125 -8.5 C 6.203125 -8.863281 5.679688 -9.054688 5.015625 -9.078125 L 2.515625 -9.078125 Z M 2.515625 -5.078125 "/></g></g></g><g fill="#ffffff" fill-opacity="1"><g transform="translate(104.0567, 327.369452)"><g><path d="M 6.796875 -2.65625 L 2.53125 -2.65625 L 1.578125 0 L 0.203125 0 L 4.078125 -10.171875 L 5.25 -10.171875 L 9.140625 0 L 7.765625 0 Z M 2.9375 -3.765625 L 6.40625 -3.765625 L 4.671875 -8.515625 Z M 2.9375 -3.765625 "/></g></g></g><g fill="#ffffff" fill-opacity="1"><g transform="translate(117.156381, 327.369452)"><g><path d="M 2.53125 -1.09375 L 7.359375 -1.09375 L 7.359375 0 L 1.1875 0 L 1.1875 -10.171875 L 2.53125 -10.171875 Z M 2.53125 -1.09375 "/></g></g></g><g fill="#ffffff" fill-opacity="1"><g transform="translate(128.620894, 327.369452)"><g><path d="M 2.921875 -10.171875 L 6.234375 -1.875 L 9.5625 -10.171875 L 11.3125 -10.171875 L 11.3125 0 L 9.96875 0 L 9.96875 -3.96875 L 10.09375 -8.234375 L 6.75 0 L 5.71875 0 L 2.390625 -8.21875 L 2.515625 -3.96875 L 2.515625 0 L 1.1875 0 L 1.1875 -10.171875 Z M 2.921875 -10.171875 "/></g></g></g><g fill="#ffffff" fill-opacity="1"><g transform="translate(144.879105, 327.369452)"><g><path d="M 6.796875 -2.65625 L 2.53125 -2.65625 L 1.578125 0 L 0.203125 0 L 4.078125 -10.171875 L 5.25 -10.171875 L 9.140625 0 L 7.765625 0 Z M 2.9375 -3.765625 L 6.40625 -3.765625 L 4.671875 -8.515625 Z M 2.9375 -3.765625 "/></g></g></g><g fill="#ffffff" fill-opacity="1"><g transform="translate(157.978786, 327.369452)"><g/></g></g><g fill="#ffffff" fill-opacity="1"><g transform="translate(165.2855, 327.369452)"><g><path d="M 1.1875 0 L 1.1875 -10.171875 L 4.046875 -10.171875 C 4.929688 -10.171875 5.710938 -9.972656 6.390625 -9.578125 C 7.078125 -9.191406 7.601562 -8.632812 7.96875 -7.90625 C 8.34375 -7.1875 8.535156 -6.363281 8.546875 -5.4375 L 8.546875 -4.78125 C 8.546875 -3.820312 8.359375 -2.976562 7.984375 -2.25 C 7.609375 -1.53125 7.078125 -0.976562 6.390625 -0.59375 C 5.710938 -0.207031 4.914062 -0.0078125 4 0 Z M 2.515625 -9.078125 L 2.515625 -1.09375 L 3.9375 -1.09375 C 4.96875 -1.09375 5.769531 -1.414062 6.34375 -2.0625 C 6.925781 -2.707031 7.21875 -3.625 7.21875 -4.8125 L 7.21875 -5.40625 C 7.21875 -6.5625 6.941406 -7.457031 6.390625 -8.09375 C 5.847656 -8.738281 5.082031 -9.066406 4.09375 -9.078125 Z M 2.515625 -9.078125 "/></g></g></g><g fill="#ffffff" fill-opacity="1"><g transform="translate(178.434097, 327.369452)"><g><path d="M 6.796875 -2.65625 L 2.53125 -2.65625 L 1.578125 0 L 0.203125 0 L 4.078125 -10.171875 L 5.25 -10.171875 L 9.140625 0 L 7.765625 0 Z M 2.9375 -3.765625 L 6.40625 -3.765625 L 4.671875 -8.515625 Z M 2.9375 -3.765625 "/></g></g></g><g fill="#ffffff" fill-opacity="1"><g transform="translate(191.533778, 327.369452)"><g/></g></g><g fill="#ffffff" fill-opacity="1"><g transform="translate(198.840492, 327.369452)"><g><path d="M 4.171875 -4.53125 C 3.023438 -4.863281 2.1875 -5.269531 1.65625 -5.75 C 1.132812 -6.238281 0.875 -6.835938 0.875 -7.546875 C 0.875 -8.347656 1.191406 -9.007812 1.828125 -9.53125 C 2.472656 -10.050781 3.3125 -10.3125 4.34375 -10.3125 C 5.039062 -10.3125 5.660156 -10.175781 6.203125 -9.90625 C 6.753906 -9.632812 7.179688 -9.257812 7.484375 -8.78125 C 7.785156 -8.3125 7.9375 -7.796875 7.9375 -7.234375 L 6.578125 -7.234375 C 6.578125 -7.847656 6.378906 -8.328125 5.984375 -8.671875 C 5.597656 -9.023438 5.050781 -9.203125 4.34375 -9.203125 C 3.675781 -9.203125 3.15625 -9.054688 2.78125 -8.765625 C 2.414062 -8.484375 2.234375 -8.082031 2.234375 -7.5625 C 2.234375 -7.144531 2.410156 -6.789062 2.765625 -6.5 C 3.117188 -6.21875 3.71875 -5.957031 4.5625 -5.71875 C 5.40625 -5.488281 6.066406 -5.226562 6.546875 -4.9375 C 7.023438 -4.644531 7.378906 -4.304688 7.609375 -3.921875 C 7.835938 -3.546875 7.953125 -3.097656 7.953125 -2.578125 C 7.953125 -1.753906 7.628906 -1.09375 6.984375 -0.59375 C 6.347656 -0.101562 5.488281 0.140625 4.40625 0.140625 C 3.707031 0.140625 3.054688 0.0078125 2.453125 -0.25 C 1.847656 -0.519531 1.378906 -0.890625 1.046875 -1.359375 C 0.722656 -1.828125 0.5625 -2.359375 0.5625 -2.953125 L 1.90625 -2.953125 C 1.90625 -2.335938 2.128906 -1.847656 2.578125 -1.484375 C 3.035156 -1.128906 3.644531 -0.953125 4.40625 -0.953125 C 5.113281 -0.953125 5.65625 -1.097656 6.03125 -1.390625 C 6.414062 -1.679688 6.609375 -2.070312 6.609375 -2.5625 C 6.609375 -3.0625 6.429688 -3.445312 6.078125 -3.71875 C 5.734375 -4 5.097656 -4.269531 4.171875 -4.53125 Z M 4.171875 -4.53125 "/></g></g></g><g fill="#ffffff" fill-opacity="1"><g transform="translate(211.094637, 327.369452)"><g><path d="M 8.34375 -10.171875 L 8.34375 -3.25 C 8.34375 -2.289062 8.039062 -1.503906 7.4375 -0.890625 C 6.84375 -0.285156 6.03125 0.0507812 5 0.125 L 4.640625 0.140625 C 3.535156 0.140625 2.648438 -0.15625 1.984375 -0.75 C 1.328125 -1.351562 0.992188 -2.1875 0.984375 -3.25 L 0.984375 -10.171875 L 2.3125 -10.171875 L 2.3125 -3.28125 C 2.3125 -2.550781 2.507812 -1.976562 2.90625 -1.5625 C 3.3125 -1.15625 3.890625 -0.953125 4.640625 -0.953125 C 5.398438 -0.953125 5.984375 -1.15625 6.390625 -1.5625 C 6.796875 -1.96875 7 -2.539062 7 -3.28125 L 7 -10.171875 Z M 8.34375 -10.171875 "/></g></g></g><g fill="#ffffff" fill-opacity="1"><g transform="translate(224.138409, 327.369452)"><g><path d="M 6.796875 -2.65625 L 2.53125 -2.65625 L 1.578125 0 L 0.203125 0 L 4.078125 -10.171875 L 5.25 -10.171875 L 9.140625 0 L 7.765625 0 Z M 2.9375 -3.765625 L 6.40625 -3.765625 L 4.671875 -8.515625 Z M 2.9375 -3.765625 "/></g></g></g><g fill="#ffffff" fill-opacity="1"><g transform="translate(237.238097, 327.369452)"><g/></g></g><g fill="#ffffff" fill-opacity="1"><g transform="translate(244.544817, 327.369452)"><g><path d="M 2.921875 -10.171875 L 6.234375 -1.875 L 9.5625 -10.171875 L 11.3125 -10.171875 L 11.3125 0 L 9.96875 0 L 9.96875 -3.96875 L 10.09375 -8.234375 L 6.75 0 L 5.71875 0 L 2.390625 -8.21875 L 2.515625 -3.96875 L 2.515625 0 L 1.1875 0 L 1.1875 -10.171875 Z M 2.921875 -10.171875 "/></g></g></g><g fill="#ffffff" fill-opacity="1"><g transform="translate(260.803035, 327.369452)"><g><path d="M 6.796875 -2.65625 L 2.53125 -2.65625 L 1.578125 0 L 0.203125 0 L 4.078125 -10.171875 L 5.25 -10.171875 L 9.140625 0 L 7.765625 0 Z M 2.9375 -3.765625 L 6.40625 -3.765625 L 4.671875 -8.515625 Z M 7.171875 -12.671875 C 7.171875 -12.171875 7.023438 -11.765625 6.734375 -11.453125 C 6.453125 -11.140625 6.097656 -10.984375 5.671875 -10.984375 C 5.484375 -10.984375 5.316406 -11.003906 5.171875 -11.046875 C 5.035156 -11.097656 4.851562 -11.191406 4.625 -11.328125 C 4.40625 -11.472656 4.242188 -11.5625 4.140625 -11.59375 C 4.035156 -11.625 3.921875 -11.640625 3.796875 -11.640625 C 3.597656 -11.640625 3.429688 -11.566406 3.296875 -11.421875 C 3.160156 -11.273438 3.09375 -11.085938 3.09375 -10.859375 L 2.234375 -10.90625 C 2.234375 -11.40625 2.375 -11.816406 2.65625 -12.140625 C 2.9375 -12.472656 3.296875 -12.640625 3.734375 -12.640625 C 3.890625 -12.640625 4.03125 -12.613281 4.15625 -12.5625 C 4.289062 -12.519531 4.46875 -12.429688 4.6875 -12.296875 C 4.914062 -12.160156 5.085938 -12.070312 5.203125 -12.03125 C 5.328125 -11.988281 5.460938 -11.96875 5.609375 -11.96875 C 5.804688 -11.96875 5.972656 -12.046875 6.109375 -12.203125 C 6.242188 -12.359375 6.3125 -12.539062 6.3125 -12.75 Z M 7.171875 -12.671875 "/></g></g></g><g fill="#ffffff" fill-opacity="1"><g transform="translate(273.902723, 327.369452)"><g><path d="M 9.015625 -4.765625 C 9.015625 -3.765625 8.84375 -2.890625 8.5 -2.140625 C 8.164062 -1.398438 7.691406 -0.832031 7.078125 -0.4375 C 6.460938 -0.0507812 5.742188 0.140625 4.921875 0.140625 C 4.117188 0.140625 3.40625 -0.0546875 2.78125 -0.453125 C 2.164062 -0.847656 1.6875 -1.410156 1.34375 -2.140625 C 1.007812 -2.867188 0.835938 -3.710938 0.828125 -4.671875 L 0.828125 -5.40625 C 0.828125 -6.382812 0.992188 -7.25 1.328125 -8 C 1.671875 -8.75 2.148438 -9.320312 2.765625 -9.71875 C 3.390625 -10.113281 4.101562 -10.3125 4.90625 -10.3125 C 5.726562 -10.3125 6.445312 -10.113281 7.0625 -9.71875 C 7.6875 -9.332031 8.164062 -8.765625 8.5 -8.015625 C 8.84375 -7.265625 9.015625 -6.394531 9.015625 -5.40625 Z M 7.671875 -5.421875 C 7.671875 -6.617188 7.425781 -7.539062 6.9375 -8.1875 C 6.457031 -8.832031 5.78125 -9.15625 4.90625 -9.15625 C 4.0625 -9.15625 3.394531 -8.832031 2.90625 -8.1875 C 2.425781 -7.539062 2.175781 -6.644531 2.15625 -5.5 L 2.15625 -4.765625 C 2.15625 -3.585938 2.398438 -2.664062 2.890625 -2 C 3.390625 -1.332031 4.066406 -1 4.921875 -1 C 5.796875 -1 6.46875 -1.3125 6.9375 -1.9375 C 7.414062 -2.570312 7.660156 -3.476562 7.671875 -4.65625 Z M 7.671875 -5.421875 "/></g></g></g></svg>